:SAMPLES-PER-SECOND 30
:FULLY-SPECIFIED
:DEGREES
114
root  -44.7161 39.5024 -6.51741 -161.191 -77.9575 152.764
RightUpLeg  -0.646208 0.285312 -11.6329
RightLeg  60.4515 0.0875777 -0.325607
RightFoot  7.34787 -1.65955 10.3319
RightToes  -1.74624e-010 0 -3.6325e-017
Spine  7.86225 4.29853 4.47342
Spine1  8.99141 6.93972 -9.13298
HEad  -14.1272 1.75626 -4.04002
LeftShoulder1  8.67933 -12.0551 -48.6941
LeftArm  -9.20914 31.1723 -26.5132
LeftForeArm  25.9103 -9.73374 -5.06255
LeftHand  -0.244104 0.0205437 5.32207
RightShoulder  7.23475 10.7831 44.1939
RightArm  5.91543 6.69134 42.7478
RightForeArm  2.45621 11.2954 8.58991
RightHand  -1.43483 3.90665 -18.0573
LeftUpLeg  -12.1645 19.0057 -9.43034
LeftLeg  18.5228 8.27021 1.68475
LeftFoot  -0.572397 -0.887611 9.43766
LeftToes  1.61887e-010 9.40759e-012 5.52375e-011
115
root  -45.8947 39.9596 -6.39516 -164.517 -78.108 155.764
RightUpLeg  -5.86406 0.649155 -10.934
RightLeg  64.6045 -1.56921 -4.1674
RightFoot  6.26022 -1.24427 8.29353
RightToes  -1.74624e-010 0 -3.6325e-017
Spine  8.2907 3.38281 4.53569
Spine1  8.95942 5.79949 -8.02124
HEad  -14.8332 3.28077 -4.80041
LeftShoulder1  8.77913 -12.175 -48.8794
LeftArm  -8.99384 28.1043 -27.9836
LeftForeArm  26.835 -11.3543 -5.11676
LeftHand  -0.244104 0.0205437 5.32207
RightShoulder  7.29218 10.9435 44.0421
RightArm  0.749585 7.1007 40.4156
RightForeArm  10.8281 2.84479 9.46228
RightHand  -1.00232 2.03215 -15.7001
LeftUpLeg  -7.83426 15.0477 -7.3885
LeftLeg  15.5832 12.389 0.0337217
LeftFoot  -0.837136 -0.854429 9.32642
LeftToes  1.61887e-010 9.40759e-012 5.52375e-011
116
root  -47.0161 40.3467 -6.31624 -166.785 -79.7757 158.297
RightUpLeg  -10.529 -0.644012 -9.82498
RightLeg  65.2041 -2.39107 -6.26764
RightFoot  4.75773 -0.95166 6.95766
RightToes  -1.74624e-010 0 -3.6325e-017
Spine  8.26688 1.9955 4.35048
Spine1  8.41405 3.97112 -6.60593
HEad  -14.8859 4.47563 -4.5845
LeftShoulder1  8.70538 -12.1485 -48.5482
LeftArm  -6.99524 24.473 -28.7422
LeftForeArm  27.1815 -12.9533 -5.34413
LeftHand  -0.244104 0.0205437 5.32207
RightShoulder  7.30783 10.8882 44.3205
RightArm  1.1814 5.5056 37.2986
RightForeArm  21.0461 0.785913 8.57109
RightHand  -0.632905 0.259259 -13.1542
LeftUpLeg  -4.47487 10.7458 -5.88609
LeftLeg  12.6932 15.2338 -1.54931
LeftFoot  -1.6411 -0.726068 8.64751
LeftToes  1.61887e-010 9.40759e-012 5.52375e-011
117
root  -48.0972 40.5679 -6.27424 -168.63 -81.5018 160.605
RightUpLeg  -14.7471 -1.95938 -8.64866
RightLeg  62.9571 -2.79843 -6.52187
RightFoot  4.07895 -0.743815 5.6958
RightToes  -1.74624e-010 0 -3.6325e-017
Spine  8.38463 0.886599 3.77786
Spine1  7.39332 2.30285 -5.25593
HEad  -14.5334 5.27704 -4.0539
LeftShoulder1  8.57504 -12.0764 -48.0383
LeftArm  -3.95653 20.7954 -29.0232
LeftForeArm  26.3806 -15.2174 -5.20825
LeftHand  -0.244104 0.0205437 5.32207
RightShoulder  7.08342 10.5977 43.8154
RightArm  1.58664 1.58837 34.2601
RightForeArm  25.7575 3.04154 8.14651
RightHand  -0.622191 0.000377179 -13.4078
LeftUpLeg  -2.11012 7.45564 -4.85665
LeftLeg  10.844 16.6237 -2.89986
LeftFoot  -2.79127 -0.568418 7.82104
LeftToes  1.61887e-010 9.40759e-012 5.52375e-011
118
root  -49.1721 40.6907 -6.2598 -169.162 -82.7605 161.339
RightUpLeg  -17.8556 -3.13919 -7.86019
RightLeg  57.9376 -3.3649 -6.23003
RightFoot  3.3636 -0.604664 4.86442
RightToes  -1.74624e-010 0 -3.6325e-017
Spine  8.94271 0.139834 2.4974
Spine1  6.21389 0.890134 -3.41892
HEad  -14.316 6.00232 -3.83139
LeftShoulder1  8.52538 -12.0145 -47.949
LeftArm  -1.32574 17.6305 -28.8163
LeftForeArm  24.5785 -19.1962 -4.32689
LeftHand  -0.244104 0.0205437 5.32207
RightShoulder  6.72318 10.2994 42.4139
RightArm  2.80529 -3.27301 31.3708
RightForeArm  19.9413 6.82161 8.52674
RightHand  -0.766952 0.729009 -14.6407
LeftUpLeg  0.0914051 5.39976 -4.33617
LeftLeg  9.55323 17.0968 -3.92362
LeftFoot  -3.73291 -0.468727 7.38233
LeftToes  1.61887e-010 9.40759e-012 5.52375e-011
119
root  -50.2383 40.7361 -6.28155 -165.933 -84.0171 158.132
RightUpLeg  -19.5614 -4.93384 -7.58149
RightLeg  50.3066 -4.22846 -5.79424
RightFoot  2.21545 -0.596955 5.1524
RightToes  -1.74624e-010 0 -3.6325e-017
Spine  9.48448 -0.595784 0.684835
Spine1  5.57272 -0.467272 -1.58354
HEad  -14.6601 6.66613 -3.63112
LeftShoulder1  8.47416 -11.914 -47.9712
LeftArm  -2.22697 14.8626 -28.0072
LeftForeArm  24.6766 -24.681 -3.87898
LeftHand  -0.244104 0.0205437 5.32207
RightShoulder  6.50971 10.1222 41.5416
RightArm  5.58992 -7.61984 28.0599
RightForeArm  9.41117 10.9241 8.65171
RightHand  -0.820714 1.32838 -14.2712
LeftUpLeg  2.14733 4.75508 -4.33405
LeftLeg  8.94725 16.3867 -4.36138
LeftFoot  -4.95093 -0.368142 7.11587
LeftToes  1.61887e-010 9.40759e-012 5.52375e-011
120
root  -51.3267 40.6729 -6.3536 -155.54 -85.251 147.88
RightUpLeg  -20.1932 -7.19129 -7.61
RightLeg  40.733 -4.86799 -4.7639
RightFoot  1.23713 -0.617921 5.67351
RightToes  -1.74624e-010 0 -3.6325e-017
Spine  9.50213 -1.24171 -1.33317
Spine1  5.51677 -1.62301 -0.164138
HEad  -15.2749 6.82014 -3.50363
LeftShoulder1  8.4458 -11.868 -47.9531
LeftArm  -6.4625 12.0685 -26.837
LeftForeArm  27.5213 -30.144 -5.03551
LeftHand  -0.244104 0.0205437 5.32207
RightShoulder  6.25214 9.82486 40.7258
RightArm  7.64075 -11.4793 25.3998
RightForeArm  1.90157 14.4078 7.78561
RightHand  -0.668153 0.69628 -12.8253
LeftUpLeg  3.62764 4.75703 -4.72375
LeftLeg  9.46106 15.0097 -4.29477
LeftFoot  -6.90098 -0.218158 6.68321
LeftToes  1.61887e-010 9.40759e-012 5.52375e-011
121
root  -52.4613 40.5425 -6.46977 -137.376 -85.7569 129.914
RightUpLeg  -19.9831 -9.40423 -7.77489
RightLeg  29.7585 -4.62099 -3.15433
RightFoot  1.41809 -0.613447 5.57471
RightToes  -1.74624e-010 0 -3.6325e-017
Spine  9.02725 -1.64198 -3.48017
Spine1  5.83301 -2.37721 0.816311
HEad  -15.6432 6.5882 -3.25787
LeftShoulder1  8.31881 -11.7766 -47.5073
LeftArm  -9.59748 9.06387 -26.0287
LeftForeArm  29.0019 -34.4303 -5.99717
LeftHand  -0.244104 0.0205437 5.32207
RightShoulder  5.92276 9.39796 39.7801
RightArm  6.39014 -14.7706 23.8338
RightForeArm  0.265747 15.6619 7.07688
RightHand  -0.552457 -0.174332 -12.3356
LeftUpLeg  4.93694 4.72671 -5.45454
LeftLeg  10.2747 13.761 -4.21622
LeftFoot  -8.91729 -0.0766321 6.16957
LeftToes  1.61887e-010 9.40759e-012 5.52375e-011
122
root  -53.6095 40.4029 -6.61415 -119.391 -85.2837 111.835
RightUpLeg  -18.7105 -11.811 -8.11535
RightLeg  17.7516 -3.7569 -1.30391
RightFoot  3.24292 -0.709596 5.69732
RightToes  -1.74624e-010 0 -3.6325e-017
Spine  8.83908 -1.80959 -5.64254
Spine1  5.97742 -2.79527 1.55244
HEad  -15.4884 6.24062 -2.77798
LeftShoulder1  8.14191 -11.684 -46.7661
LeftArm  -12.3843 6.36413 -25.4813
LeftForeArm  30.0027 -37.7191 -6.81906
LeftHand  -0.244104 0.0205437 5.32207
RightShoulder  5.66096 9.07685 38.9159
RightArm  2.35284 -17.3694 23.0512
RightForeArm  2.30043 14.1357 7.1191
RightHand  -0.570542 -0.290372 -12.9986
LeftUpLeg  6.77221 4.63087 -6.36757
LeftLeg  10.6033 12.9014 -4.35893
LeftFoot  -10.4826 0.0209494 5.64779
LeftToes  1.61887e-010 9.40759e-012 5.52375e-011
123
root  -54.7772 40.2247 -6.78116 -107.969 -84.4054 99.9688
RightUpLeg  -16.1858 -12.4211 -9.31528
RightLeg  5.94473 -5.21174 1.30564
RightFoot  5.33492 -0.939909 6.65786
RightToes  -1.74624e-010 0 -3.6325e-017
Spine  9.05123 -1.89609 -7.34564
Spine1  5.96675 -3.01555 1.79499
HEad  -15.2672 5.85045 -2.20603
LeftShoulder1  8.04972 -11.6938 -46.1924
LeftArm  -14.9673 4.33896 -24.7415
LeftForeArm  30.9562 -40.9366 -7.70193
LeftHand  -0.244104 0.0205437 5.32207
RightShoulder  5.52873 8.94574 38.3515
RightArm  -2.80859 -19.3247 22.7389
RightForeArm  5.21644 10.8199 7.1882
RightHand  -0.584505 -0.334799 -13.4326
LeftUpLeg  9.04322 4.64122 -7.14182
LeftLeg  11.0009 12.2244 -4.44811
LeftFoot  -12.2647 0.112495 4.92006
LeftToes  1.61887e-010 9.40759e-012 5.52375e-011
124
root  -56.026 39.9768 -6.97024 -101.48 -83.6937 93.1033
RightUpLeg  -13.689 -10.055 -10.8809
RightLeg  -2.52628 -8.9305 4.22324
RightFoot  5.79944 -1.07973 7.40544
RightToes  -1.74624e-010 0 -3.6325e-017
Spine  8.7412 -1.97002 -8.25744
Spine1  6.30207 -3.0684 1.57535
HEad  -15.2333 5.34557 -1.94691
LeftShoulder1  8.05969 -11.7702 -46.0132
LeftArm  -16.8102 2.8897 -23.7364
LeftForeArm  31.7954 -44.0049 -8.63206
LeftHand  -0.244104 0.0205437 5.32207
RightShoulder  5.42998 8.85171 37.907
RightArm  -6.79795 -21.0427 23.009
RightForeArm  6.56295 7.52692 6.5703
RightHand  -0.514617 -0.887564 -13.2268
LeftUpLeg  11.1814 4.82991 -7.53693
LeftLeg  11.9696 11.4535 -4.22779
LeftFoot  -14.7886 0.20692 3.94577
LeftToes  1.61887e-010 9.40759e-012 5.52375e-011
